P1
# une ligne image = une ligne du fichier
4 4
0000
0110
0010
0000